<svg width="18" height="18" viewBox="0 0 18 18" fill="none" xmlns="http://www.w3.org/2000/svg">
<g clip-path="url(#clip0)">
<path d="M10.4604 0.65911C10.2516 0.55951 10.0056 0.58591 9.8256 0.73111L3.9888 5.40031H1.2C0.5388 5.40031 0 5.93911 0 6.6003V11.4003C0 12.0615 0.5388 12.6003 1.2 12.6003H3.9888L9.8244 17.2695C9.9336 17.3559 10.0668 17.4003 10.2 17.4003C10.2888 17.4003 10.3776 17.3811 10.4604 17.3415C10.668 17.2407 10.8 17.0307 10.8 16.8003V1.20031C10.8 0.96991 10.668 0.75991 10.4604 0.65911ZM3.6 11.4003H1.2V6.6003H3.6V11.4003ZM9.6 15.5511L4.8 11.7111V6.2895L9.6 2.44951V15.5511Z" fill="#616D75"/>
<path d="M13.8388 4.75706C13.6024 4.52306 13.2232 4.52666 12.9904 4.76186C12.7576 4.99826 12.76 5.37746 12.9952 5.61026C13.9012 6.50666 14.4004 7.71026 14.4004 9.00025C14.4004 10.2903 13.9012 11.4938 12.9952 12.3902C12.7588 12.623 12.7564 13.0022 12.9904 13.2386C13.108 13.3574 13.2628 13.4162 13.4164 13.4162C13.5688 13.4162 13.7212 13.3586 13.8388 13.2422C14.9752 12.1202 15.6004 10.6143 15.6004 9.00025C15.6004 7.38626 14.9752 5.88026 13.8388 4.75706Z" fill="#616D75"/>
<path d="M15.5309 3.06628C15.2957 2.83348 14.9153 2.83468 14.6825 3.06988C14.4497 3.30508 14.4509 3.68548 14.6861 3.91828C16.0493 5.27068 16.8005 7.07548 16.8005 9.00028C16.8005 10.9251 16.0493 12.7299 14.6861 14.0823C14.4509 14.3151 14.4497 14.6955 14.6825 14.9307C14.8001 15.0495 14.9537 15.1083 15.1085 15.1083C15.2609 15.1083 15.4133 15.0507 15.5309 14.9343C17.1233 13.3551 18.0005 11.2479 18.0005 9.00028C18.0005 6.75268 17.1233 4.64548 15.5309 3.06628Z" fill="#616D75"/>
</g>
<defs>
<clipPath id="clip0">
<rect width="18" height="18" fill="white"/>
</clipPath>
</defs>
</svg>
