<svg width="22" height="22" viewBox="0 0 22 22" fill="none" xmlns="http://www.w3.org/2000/svg">
<g clip-path="url(#clip0)">
<path d="M20.7197 13.5853V5.69103L5.16815 2.88312V1.91262C5.16815 0.858011 4.31018 0 3.25558 0H1.28027V1.29596H3.25553C3.59555 1.29596 3.87219 1.5726 3.87219 1.91262V13.8789C3.87219 15.2603 4.99605 16.3842 6.3775 16.3842H6.8961V17.861C6.63133 17.745 6.33922 17.6801 6.03213 17.6801C4.84114 17.6801 3.87219 18.6491 3.87219 19.8401C3.87219 21.031 4.84114 22 6.03213 22C7.15024 22 8.07253 21.146 8.18122 20.056H8.19206V16.3842H19.4237V17.861C19.1589 17.745 18.8668 17.6801 18.5597 17.6801C17.3687 17.6801 16.3998 18.6491 16.3998 19.8401C16.3998 21.031 17.3687 22 18.5597 22C19.6778 22 20.6001 21.146 20.7088 20.056H20.7197V15.0882H6.3775C5.71064 15.0882 5.16815 14.5457 5.16815 13.8789V13.3693L20.7197 13.5853ZM6.03213 20.704C5.55573 20.704 5.16815 20.3164 5.16815 19.8401C5.16815 19.3637 5.55573 18.9761 6.03213 18.9761C6.50852 18.9761 6.8961 19.3637 6.8961 19.8401C6.8961 20.3164 6.50852 20.704 6.03213 20.704ZM18.5597 20.704C18.0833 20.704 17.6958 20.3164 17.6958 19.8401C17.6958 19.3637 18.0833 18.9761 18.5597 18.9761C19.0361 18.9761 19.4237 19.3637 19.4237 19.8401C19.4237 20.3164 19.0361 20.704 18.5597 20.704ZM11.648 12.1632L9.05603 12.1272V4.90201L11.648 5.36998V12.1632ZM12.9439 5.60399L15.3198 6.03299V12.2142L12.9439 12.1812V5.60399ZM7.76007 12.1092L5.16815 12.0732V4.20003L7.76007 4.668V12.1092ZM19.4237 12.2712L16.6158 12.2322V6.26696L19.4237 6.77393V12.2712Z" fill="white"/>
</g>
<defs>
<clipPath id="clip0">
<rect width="22" height="22" fill="white"/>
</clipPath>
</defs>
</svg>
