<svg width="24" height="24" viewBox="0 0 24 24" fill="none" xmlns="http://www.w3.org/2000/svg">
<g clip-path="url(#clip0)">
<path d="M14.6423 0.986328H2.19845C0.993178 0.986328 0.0125953 1.96686 0.0125953 3.17213C0.0125953 19.1195 -0.080501 18.138 0.239509 18.458C4.89844 23.1169 4.60304 22.8463 4.76597 22.9269C4.99898 23.0438 4.36138 23.0087 14.6422 23.0087C15.8475 23.0087 16.8281 22.0282 16.8281 20.8229V3.17213C16.8281 1.96686 15.8475 0.986328 14.6423 0.986328ZM4.33705 20.3669L2.6545 18.6844H4.33705V20.3669ZM15.2805 20.8229C15.2805 21.1748 14.9942 21.4611 14.6423 21.4611H5.88463V17.9105C5.88463 17.4832 5.53817 17.1367 5.11084 17.1367H1.56017V3.17213C1.56017 2.82021 1.84647 2.5339 2.19845 2.5339H14.6423C14.9942 2.5339 15.2805 2.82021 15.2805 3.17213V20.8229ZM20.4141 3.17213V20.823C20.4141 22.0282 19.4335 23.0088 18.2282 23.0088C17.8009 23.0088 17.4545 22.6624 17.4545 22.235C17.4545 21.8076 17.8009 21.4612 18.2282 21.4612C18.5802 21.4612 18.8665 21.1749 18.8665 20.823V3.17213C18.8665 2.82021 18.5802 2.5339 18.2282 2.5339C17.8009 2.5339 17.4545 2.18749 17.4545 1.76012C17.4545 1.33274 17.8009 0.986328 18.2282 0.986328C19.4335 0.986328 20.4141 1.96686 20.4141 3.17213ZM24 3.17213V20.823C24 22.0282 23.0195 23.0088 21.8142 23.0088C21.3868 23.0088 21.0404 22.6624 21.0404 22.235C21.0404 21.8076 21.3868 21.4612 21.8142 21.4612C22.1661 21.4612 22.4524 21.1749 22.4524 20.823V3.17213C22.4524 2.82021 22.1661 2.5339 21.8142 2.5339C21.3868 2.5339 21.0404 2.18749 21.0404 1.76012C21.0404 1.33274 21.3868 0.986328 21.8142 0.986328C23.0195 0.986328 24 1.96686 24 3.17213Z" fill="#616D75"/>
</g>
<defs>
<clipPath id="clip0">
<rect width="24" height="24" fill="white"/>
</clipPath>
</defs>
</svg>
