<svg width="24" height="24" viewBox="0 0 24 24" fill="none" xmlns="http://www.w3.org/2000/svg">
<path d="M23.6 3.79995H19.2V0.599951C19.2 0.379051 19.0209 0.199951 18.8 0.199951H5.2C4.9791 0.199951 4.8 0.379051 4.8 0.599951V6.19995H0.4C0.1791 6.19995 0 6.37905 0 6.59995V23C0 23.2208 0.1791 23.4 0.4 23.4C0.6209 23.4 0.8 23.2208 0.8 23V6.99995H4.8V23.4C4.8 23.6208 4.9791 23.7999 5.2 23.7999H18.8C19.0209 23.7999 19.2 23.6208 19.2 23.4V4.59995H23.2V23C23.2 23.2208 23.3791 23.4 23.6 23.4C23.8209 23.4 24 23.2208 24 23V4.19995C24 3.97905 23.8209 3.79995 23.6 3.79995ZM11.6 23H10V19.4H11.6V23ZM14 23H12.4V19.4H14V23ZM18.4 23H14.8V19C14.8 18.7791 14.6209 18.6 14.4 18.6H9.6C9.3791 18.6 9.2 18.7791 9.2 19V23H5.6V0.999951H18.4V23Z" fill="#616D75"/>
<path d="M9.20039 1.80005H6.80039C6.57949 1.80005 6.40039 1.97915 6.40039 2.20005V4.60005C6.40039 4.82095 6.57949 5.00005 6.80039 5.00005H9.20039C9.42129 5.00005 9.60039 4.82095 9.60039 4.60005V2.20005C9.60039 1.97915 9.42129 1.80005 9.20039 1.80005ZM8.80039 4.20005H7.20039V2.60005H8.80039V4.20005Z" fill="#616D75"/>
<path d="M13.2004 1.80005H10.8004C10.5795 1.80005 10.4004 1.97915 10.4004 2.20005V4.60005C10.4004 4.82095 10.5795 5.00005 10.8004 5.00005H13.2004C13.4213 5.00005 13.6004 4.82095 13.6004 4.60005V2.20005C13.6004 1.97915 13.4213 1.80005 13.2004 1.80005ZM12.8004 4.20005H11.2004V2.60005H12.8004V4.20005Z" fill="#616D75"/>
<path d="M17.2004 1.80005H14.8004C14.5795 1.80005 14.4004 1.97915 14.4004 2.20005V4.60005C14.4004 4.82095 14.5795 5.00005 14.8004 5.00005H17.2004C17.4213 5.00005 17.6004 4.82095 17.6004 4.60005V2.20005C17.6004 1.97915 17.4213 1.80005 17.2004 1.80005ZM16.8004 4.20005H15.2004V2.60005H16.8004V4.20005Z" fill="#616D75"/>
<path d="M9.20039 5.80005H6.80039C6.57949 5.80005 6.40039 5.97915 6.40039 6.20005V8.60005C6.40039 8.82095 6.57949 9.00005 6.80039 9.00005H9.20039C9.42129 9.00005 9.60039 8.82095 9.60039 8.60005V6.20005C9.60039 5.97915 9.42129 5.80005 9.20039 5.80005ZM8.80039 8.20005H7.20039V6.60005H8.80039V8.20005Z" fill="#616D75"/>
<path d="M13.2004 5.80005H10.8004C10.5795 5.80005 10.4004 5.97915 10.4004 6.20005V8.60005C10.4004 8.82095 10.5795 9.00005 10.8004 9.00005H13.2004C13.4213 9.00005 13.6004 8.82095 13.6004 8.60005V6.20005C13.6004 5.97915 13.4213 5.80005 13.2004 5.80005ZM12.8004 8.20005H11.2004V6.60005H12.8004V8.20005Z" fill="#616D75"/>
<path d="M17.2004 5.80005H14.8004C14.5795 5.80005 14.4004 5.97915 14.4004 6.20005V8.60005C14.4004 8.82095 14.5795 9.00005 14.8004 9.00005H17.2004C17.4213 9.00005 17.6004 8.82095 17.6004 8.60005V6.20005C17.6004 5.97915 17.4213 5.80005 17.2004 5.80005ZM16.8004 8.20005H15.2004V6.60005H16.8004V8.20005Z" fill="#616D75"/>
<path d="M9.20039 9.80005H6.80039C6.57949 9.80005 6.40039 9.97915 6.40039 10.2V12.6C6.40039 12.8209 6.57949 13 6.80039 13H9.20039C9.42129 13 9.60039 12.8209 9.60039 12.6V10.2C9.60039 9.97915 9.42129 9.80005 9.20039 9.80005ZM8.80039 12.2H7.20039V10.6H8.80039V12.2Z" fill="#616D75"/>
<path d="M13.2004 9.80005H10.8004C10.5795 9.80005 10.4004 9.97915 10.4004 10.2V12.6C10.4004 12.8209 10.5795 13 10.8004 13H13.2004C13.4213 13 13.6004 12.8209 13.6004 12.6V10.2C13.6004 9.97915 13.4213 9.80005 13.2004 9.80005ZM12.8004 12.2H11.2004V10.6H12.8004V12.2Z" fill="#616D75"/>
<path d="M17.2004 9.80005H14.8004C14.5795 9.80005 14.4004 9.97915 14.4004 10.2V12.6C14.4004 12.8209 14.5795 13 14.8004 13H17.2004C17.4213 13 17.6004 12.8209 17.6004 12.6V10.2C17.6004 9.97915 17.4213 9.80005 17.2004 9.80005ZM16.8004 12.2H15.2004V10.6H16.8004V12.2Z" fill="#616D75"/>
<path d="M9.20039 13.8H6.80039C6.57949 13.8 6.40039 13.9791 6.40039 14.2V16.6C6.40039 16.8209 6.57949 17 6.80039 17H9.20039C9.42129 17 9.60039 16.8209 9.60039 16.6V14.2C9.60039 13.9791 9.42129 13.8 9.20039 13.8ZM8.80039 16.2H7.20039V14.6H8.80039V16.2Z" fill="#616D75"/>
<path d="M13.2004 13.8H10.8004C10.5795 13.8 10.4004 13.9791 10.4004 14.2V16.6C10.4004 16.8209 10.5795 17 10.8004 17H13.2004C13.4213 17 13.6004 16.8209 13.6004 16.6V14.2C13.6004 13.9791 13.4213 13.8 13.2004 13.8ZM12.8004 16.2H11.2004V14.6H12.8004V16.2Z" fill="#616D75"/>
<path d="M17.2004 13.8H14.8004C14.5795 13.8 14.4004 13.9791 14.4004 14.2V16.6C14.4004 16.8209 14.5795 17 14.8004 17H17.2004C17.4213 17 17.6004 16.8209 17.6004 16.6V14.2C17.6004 13.9791 17.4213 13.8 17.2004 13.8ZM16.8004 16.2H15.2004V14.6H16.8004V16.2Z" fill="#616D75"/>
<path d="M2.39961 7.80005H1.99961C1.77871 7.80005 1.59961 7.97915 1.59961 8.20005V8.60005C1.59961 8.82095 1.77871 9.00005 1.99961 9.00005H2.39961C2.62051 9.00005 2.79961 8.82095 2.79961 8.60005V8.20005C2.79961 7.97915 2.62051 7.80005 2.39961 7.80005Z" fill="#616D75"/>
<path d="M4.0002 7.80005H3.6002C3.3793 7.80005 3.2002 7.97915 3.2002 8.20005V8.60005C3.2002 8.82095 3.3793 9.00005 3.6002 9.00005H4.0002C4.2211 9.00005 4.4002 8.82095 4.4002 8.60005V8.20005C4.4002 7.97915 4.2211 7.80005 4.0002 7.80005Z" fill="#616D75"/>
<path d="M2.39961 9.3999H1.99961C1.77871 9.3999 1.59961 9.579 1.59961 9.7999V10.1999C1.59961 10.4208 1.77871 10.5999 1.99961 10.5999H2.39961C2.62051 10.5999 2.79961 10.4208 2.79961 10.1999V9.7999C2.79961 9.579 2.62051 9.3999 2.39961 9.3999Z" fill="#616D75"/>
<path d="M4.0002 9.3999H3.6002C3.3793 9.3999 3.2002 9.579 3.2002 9.7999V10.1999C3.2002 10.4208 3.3793 10.5999 3.6002 10.5999H4.0002C4.2211 10.5999 4.4002 10.4208 4.4002 10.1999V9.7999C4.4002 9.579 4.2211 9.3999 4.0002 9.3999Z" fill="#616D75"/>
<path d="M2.39961 11H1.99961C1.77871 11 1.59961 11.1791 1.59961 11.4V11.8C1.59961 12.0209 1.77871 12.2 1.99961 12.2H2.39961C2.62051 12.2 2.79961 12.0209 2.79961 11.8V11.4C2.79961 11.1791 2.62051 11 2.39961 11Z" fill="#616D75"/>
<path d="M4.0002 11H3.6002C3.3793 11 3.2002 11.1791 3.2002 11.4V11.8C3.2002 12.0209 3.3793 12.2 3.6002 12.2H4.0002C4.2211 12.2 4.4002 12.0209 4.4002 11.8V11.4C4.4002 11.1791 4.2211 11 4.0002 11Z" fill="#616D75"/>
<path d="M2.39961 12.6001H1.99961C1.77871 12.6001 1.59961 12.7792 1.59961 13.0001V13.4001C1.59961 13.621 1.77871 13.8001 1.99961 13.8001H2.39961C2.62051 13.8001 2.79961 13.621 2.79961 13.4001V13.0001C2.79961 12.7792 2.62051 12.6001 2.39961 12.6001Z" fill="#616D75"/>
<path d="M4.0002 12.6001H3.6002C3.3793 12.6001 3.2002 12.7792 3.2002 13.0001V13.4001C3.2002 13.621 3.3793 13.8001 3.6002 13.8001H4.0002C4.2211 13.8001 4.4002 13.621 4.4002 13.4001V13.0001C4.4002 12.7792 4.2211 12.6001 4.0002 12.6001Z" fill="#616D75"/>
<path d="M2.39961 14.2H1.99961C1.77871 14.2 1.59961 14.3791 1.59961 14.6V15C1.59961 15.2209 1.77871 15.4 1.99961 15.4H2.39961C2.62051 15.4 2.79961 15.2209 2.79961 15V14.6C2.79961 14.3791 2.62051 14.2 2.39961 14.2Z" fill="#616D75"/>
<path d="M4.0002 14.2H3.6002C3.3793 14.2 3.2002 14.3791 3.2002 14.6V15C3.2002 15.2209 3.3793 15.4 3.6002 15.4H4.0002C4.2211 15.4 4.4002 15.2209 4.4002 15V14.6C4.4002 14.3791 4.2211 14.2 4.0002 14.2Z" fill="#616D75"/>
<path d="M2.39961 15.8H1.99961C1.77871 15.8 1.59961 15.9791 1.59961 16.2V16.6C1.59961 16.8209 1.77871 17 1.99961 17H2.39961C2.62051 17 2.79961 16.8209 2.79961 16.6V16.2C2.79961 15.9791 2.62051 15.8 2.39961 15.8Z" fill="#616D75"/>
<path d="M4.0002 15.8H3.6002C3.3793 15.8 3.2002 15.9791 3.2002 16.2V16.6C3.2002 16.8209 3.3793 17 3.6002 17H4.0002C4.2211 17 4.4002 16.8209 4.4002 16.6V16.2C4.4002 15.9791 4.2211 15.8 4.0002 15.8Z" fill="#616D75"/>
<path d="M2.39961 17.3999H1.99961C1.77871 17.3999 1.59961 17.579 1.59961 17.7999V18.1999C1.59961 18.4208 1.77871 18.5999 1.99961 18.5999H2.39961C2.62051 18.5999 2.79961 18.4208 2.79961 18.1999V17.7999C2.79961 17.579 2.62051 17.3999 2.39961 17.3999Z" fill="#616D75"/>
<path d="M4.0002 17.3999H3.6002C3.3793 17.3999 3.2002 17.579 3.2002 17.7999V18.1999C3.2002 18.4208 3.3793 18.5999 3.6002 18.5999H4.0002C4.2211 18.5999 4.4002 18.4208 4.4002 18.1999V17.7999C4.4002 17.579 4.2211 17.3999 4.0002 17.3999Z" fill="#616D75"/>
<path d="M2.39961 19H1.99961C1.77871 19 1.59961 19.1791 1.59961 19.4V19.8C1.59961 20.0209 1.77871 20.2 1.99961 20.2H2.39961C2.62051 20.2 2.79961 20.0209 2.79961 19.8V19.4C2.79961 19.1791 2.62051 19 2.39961 19Z" fill="#616D75"/>
<path d="M4.0002 19H3.6002C3.3793 19 3.2002 19.1791 3.2002 19.4V19.8C3.2002 20.0209 3.3793 20.2 3.6002 20.2H4.0002C4.2211 20.2 4.4002 20.0209 4.4002 19.8V19.4C4.4002 19.1791 4.2211 19 4.0002 19Z" fill="#616D75"/>
<path d="M2.39961 20.6001H1.99961C1.77871 20.6001 1.59961 20.7792 1.59961 21.0001V21.4001C1.59961 21.621 1.77871 21.8001 1.99961 21.8001H2.39961C2.62051 21.8001 2.79961 21.621 2.79961 21.4001V21.0001C2.79961 20.7792 2.62051 20.6001 2.39961 20.6001Z" fill="#616D75"/>
<path d="M4.0002 20.6001H3.6002C3.3793 20.6001 3.2002 20.7792 3.2002 21.0001V21.4001C3.2002 21.621 3.3793 21.8001 3.6002 21.8001H4.0002C4.2211 21.8001 4.4002 21.621 4.4002 21.4001V21.0001C4.4002 20.7792 4.2211 20.6001 4.0002 20.6001Z" fill="#616D75"/>
<path d="M22 5.3999H20.4C20.1791 5.3999 20 5.579 20 5.7999V7.3999C20 7.6208 20.1791 7.7999 20.4 7.7999H22C22.2209 7.7999 22.4 7.6208 22.4 7.3999V5.7999C22.4 5.579 22.2209 5.3999 22 5.3999ZM21.6 6.9999H20.8V6.1999H21.6V6.9999Z" fill="#616D75"/>
<path d="M22 8.6001H20.4C20.1791 8.6001 20 8.7792 20 9.0001V10.6001C20 10.821 20.1791 11.0001 20.4 11.0001H22C22.2209 11.0001 22.4 10.821 22.4 10.6001V9.0001C22.4 8.7792 22.2209 8.6001 22 8.6001ZM21.6 10.2001H20.8V9.4001H21.6V10.2001Z" fill="#616D75"/>
<path d="M22 11.8H20.4C20.1791 11.8 20 11.9791 20 12.2V13.8C20 14.0209 20.1791 14.2 20.4 14.2H22C22.2209 14.2 22.4 14.0209 22.4 13.8V12.2C22.4 11.9791 22.2209 11.8 22 11.8ZM21.6 13.4H20.8V12.6H21.6V13.4Z" fill="#616D75"/>
<path d="M22 15H20.4C20.1791 15 20 15.1791 20 15.4V17C20 17.2209 20.1791 17.4 20.4 17.4H22C22.2209 17.4 22.4 17.2209 22.4 17V15.4C22.4 15.1791 22.2209 15 22 15ZM21.6 16.6H20.8V15.8H21.6V16.6Z" fill="#616D75"/>
<path d="M22 18.2H20.4C20.1791 18.2 20 18.3791 20 18.6V20.2C20 20.4209 20.1791 20.6 20.4 20.6H22C22.2209 20.6 22.4 20.4209 22.4 20.2V18.6C22.4 18.3791 22.2209 18.2 22 18.2ZM21.6 19.8H20.8V19H21.6V19.8Z" fill="#616D75"/>
</svg>
