<svg width="24" height="24" viewBox="0 0 24 24" fill="none" xmlns="http://www.w3.org/2000/svg">
<g clip-path="url(#clip0)">
<path d="M23.7448 9.75285L12.3684 1.4233C12.149 1.26271 11.851 1.26271 11.6317 1.4233L0.255261 9.75285C-0.0226135 9.95633 -0.0829885 10.3465 0.120496 10.6244C0.32398 10.9023 0.714215 10.9626 0.992043 10.7592L12 2.69929L23.008 10.7591C23.119 10.8404 23.248 10.8796 23.3759 10.8796C23.5679 10.8796 23.7574 10.7912 23.8795 10.6243C24.083 10.3465 24.0227 9.95633 23.7448 9.75285Z" fill="#616D75"/>
<path d="M20.7303 10.9005C20.386 10.9005 20.1068 11.1797 20.1068 11.5241V21.4498H15.1182V16.0317C15.1182 14.3124 13.7194 12.9136 12.0001 12.9136C10.2808 12.9136 8.88198 14.3124 8.88198 16.0317V21.4499H3.8934V11.5241C3.8934 11.1797 3.61416 10.9006 3.26982 10.9006C2.92547 10.9006 2.64624 11.1797 2.64624 11.5241V22.0735C2.64624 22.4179 2.92547 22.6971 3.26982 22.6971H9.50555C9.83349 22.6971 10.1019 22.4437 10.1267 22.1221C10.1282 22.1075 10.1291 22.0915 10.1291 22.0735V16.0318C10.1291 15.0001 10.9684 14.1608 12.0001 14.1608C13.0318 14.1608 13.8711 15.0002 13.8711 16.0318V22.0735C13.8711 22.0914 13.872 22.1071 13.8735 22.1215C13.8981 22.4434 14.1665 22.6971 14.4946 22.6971H20.7304C21.0748 22.6971 21.354 22.4179 21.354 22.0735V11.5241C21.3539 11.1797 21.0747 10.9005 20.7303 10.9005Z" fill="#616D75"/>
</g>
<defs>
<clipPath id="clip0">
<rect width="24" height="24" fill="white"/>
</clipPath>
</defs>
</svg>
