<svg width="24" height="24" viewBox="0 0 24 24" fill="none" xmlns="http://www.w3.org/2000/svg">
<g clip-path="url(#clip0)">
<path d="M23.8615 5.01415C23.7241 4.81725 23.503 4.69555 23.2629 4.68529L8.37549 4.04358C7.94834 4.02489 7.59139 4.35466 7.57313 4.77982C7.55498 5.20482 7.88421 5.56392 8.30932 5.58218L22.1888 6.18049L19.4598 14.6952H7.31544L5.12137 2.74865C5.07314 2.48682 4.89338 2.26839 4.64546 2.17112L1.05195 0.759382C0.655903 0.604325 0.208991 0.798858 0.0534498 1.19442C-0.101823 1.59021 0.0926573 2.03739 0.488492 2.19293L3.68369 3.44816L5.91648 15.6044C5.98378 15.9698 6.30227 16.2352 6.67399 16.2352H7.04437L6.19861 18.5845C6.12782 18.7813 6.15699 18.9998 6.27746 19.1708C6.39776 19.3418 6.59343 19.4435 6.8023 19.4435H7.39552C7.02793 19.8526 6.8023 20.3912 6.8023 20.9836C6.8023 22.2575 7.83883 23.2937 9.11243 23.2937C10.386 23.2937 11.4226 22.2575 11.4226 20.9836C11.4226 20.3913 11.1969 19.8526 10.8294 19.4435H15.8661C15.4983 19.8526 15.2727 20.3912 15.2727 20.9836C15.2727 22.2575 16.309 23.2937 17.5829 23.2937C18.8568 23.2937 19.893 22.2575 19.893 20.9836C19.893 20.3913 19.6674 19.8526 19.2999 19.4435H20.0214C20.3758 19.4435 20.6631 19.1562 20.6631 18.8018C20.6631 18.4473 20.3758 18.1601 20.0214 18.1601H7.71535L8.4083 16.235H20.0213C20.3562 16.235 20.6525 16.0187 20.7545 15.7001L23.963 5.68943C24.0367 5.46096 23.9989 5.21116 23.8615 5.01415ZM9.11248 22.0106C8.54623 22.0106 8.08573 21.5501 8.08573 20.9839C8.08573 20.4176 8.54623 19.9571 9.11248 19.9571C9.67874 19.9571 10.1392 20.4176 10.1392 20.9839C10.1392 21.5501 9.67874 22.0106 9.11248 22.0106ZM17.5829 22.0106C17.0166 22.0106 16.5562 21.5501 16.5562 20.9839C16.5562 20.4176 17.0166 19.9571 17.5829 19.9571C18.1491 19.9571 18.6096 20.4176 18.6096 20.9839C18.6096 21.5501 18.1491 22.0106 17.5829 22.0106Z" fill="#616D75"/>
</g>
<defs>
<clipPath id="clip0">
<rect width="24" height="24" fill="white"/>
</clipPath>
</defs>
</svg>
