<svg width="24" height="24" viewBox="0 0 24 24" fill="none" xmlns="http://www.w3.org/2000/svg">
<path d="M21.255 14.9652C20.5259 14.3246 19.6417 13.771 18.6267 13.32C18.1928 13.1273 17.6851 13.3227 17.4924 13.7564C17.2997 14.1901 17.4951 14.6978 17.9288 14.8907C18.7846 15.271 19.5222 15.7304 20.1205 16.2563C20.8582 16.9045 21.2814 17.8431 21.2814 18.8319V20.4217C21.2814 20.8956 20.8958 21.2811 20.422 21.2811H3.57825C3.10442 21.2811 2.71887 20.8956 2.71887 20.4217V18.8319C2.71887 17.8431 3.14201 16.9045 3.8797 16.2563C4.74797 15.4933 7.27775 13.7186 12.0001 13.7186C15.5066 13.7186 18.3595 10.8657 18.3595 7.35925C18.3595 3.85277 15.5066 0.999878 12.0001 0.999878C8.49364 0.999878 5.64075 3.85277 5.64075 7.35925C5.64075 9.40916 6.61594 11.2353 8.12655 12.399C5.36246 13.0066 3.64304 14.1762 2.74522 14.9652C1.63626 15.9396 1.00012 17.3488 1.00012 18.8319V20.4217C1.00012 21.8434 2.15659 22.9999 3.57825 22.9999H20.422C21.8437 22.9999 23.0001 21.8434 23.0001 20.4217V18.8319C23.0001 17.3488 22.364 15.9396 21.255 14.9652ZM7.3595 7.35925C7.3595 4.80043 9.4413 2.71863 12.0001 2.71863C14.5589 2.71863 16.6407 4.80043 16.6407 7.35925C16.6407 9.91807 14.5589 11.9999 12.0001 11.9999C9.4413 11.9999 7.3595 9.91807 7.3595 7.35925Z" fill="#616D75"/>
</svg>
