<svg width="18" height="18" viewBox="0 0 18 18" fill="none" xmlns="http://www.w3.org/2000/svg">
<g clip-path="url(#clip0)">
<path d="M10.2318 8.53621C10.2849 8.64003 10.3905 8.70001 10.4997 8.70001C10.5453 8.70001 10.5921 8.68949 10.6356 8.66731C10.6533 8.65831 12.4191 7.76131 13.29 7.48622C13.4478 7.43612 13.5354 7.26752 13.4853 7.10974C13.4355 6.95192 13.2681 6.86403 13.1088 6.91385C12.1914 7.20395 10.4376 8.09494 10.3632 8.13273C10.2156 8.20772 10.1568 8.38835 10.2318 8.53621Z" fill="#616D75"/>
<path d="M10.5007 5.10017C10.5463 5.10017 10.5931 5.08965 10.6366 5.06747C10.6543 5.05847 12.4201 4.16147 13.291 3.88637C13.4488 3.83627 13.5364 3.66766 13.4863 3.50988C13.4364 3.35207 13.2691 3.26418 13.1098 3.314C12.1924 3.6041 10.4386 4.4951 10.3642 4.53289C10.2166 4.60788 10.1578 4.78847 10.2328 4.93637C10.2859 5.04015 10.3915 5.10017 10.5007 5.10017Z" fill="#616D75"/>
<path d="M17.6999 4.50011C17.534 4.50011 17.3999 4.63451 17.3999 4.80009V16.5C17.3999 16.9962 16.9961 17.4 16.4999 17.4H9.29995V16.7097C9.73736 16.5567 10.8767 16.2 11.9999 16.2C14.6132 16.2 16.3877 16.7787 16.4054 16.7847C16.4957 16.8147 16.5965 16.7997 16.6754 16.7433C16.7537 16.6869 16.7999 16.5963 16.7999 16.5V3.30013C16.7999 3.15943 16.7024 3.03762 16.565 3.00731C16.565 3.00731 16.3298 2.95483 15.9278 2.881C15.7655 2.85101 15.6086 2.95901 15.5786 3.12161C15.5486 3.2848 15.6563 3.4411 15.8192 3.47109C15.9725 3.49929 16.1009 3.52418 16.1999 3.54401V16.1013C15.5201 15.9231 14.0105 15.6 11.9999 15.6C10.6928 15.6 9.40883 16.0293 9.0116 16.1748C8.65849 16.0188 7.59112 15.6 6.29992 15.6C4.23352 15.6 2.53134 15.9408 1.79995 16.1139V3.5323C2.39904 3.38499 4.16844 3.00011 6.29992 3.00011C7.39372 3.00011 8.33179 3.34059 8.69991 3.49451V15.3C8.69991 15.408 8.75809 15.5079 8.85199 15.561C8.9459 15.6144 9.0617 15.6129 9.1544 15.5571C9.18411 15.5394 12.1565 13.764 14.7947 12.8847C14.9173 12.8436 14.9999 12.7293 14.9999 12.6V0.300129C14.9999 0.201727 14.9516 0.109619 14.8706 0.0535448C14.7902 -0.00256413 14.687 -0.0154664 14.5943 0.0190568C12.194 0.919331 9.76524 2.43072 9.74091 2.44573C9.6005 2.53362 9.55761 2.71872 9.6455 2.85913C9.73311 2.99955 9.9182 3.04244 10.0589 2.95455C10.0811 2.94045 12.194 1.62586 14.3999 0.73877V12.3853C12.3521 13.0969 10.214 14.2588 9.29988 14.7789V3.30013C9.29988 3.18643 9.23569 3.08262 9.13398 3.03164C9.08237 3.00615 7.853 2.40014 6.29992 2.40014C3.58914 2.40014 1.50506 2.98664 1.41745 3.01181C1.28875 3.04841 1.19994 3.16633 1.19994 3.30013V16.5C1.19994 16.5939 1.24435 16.6827 1.31905 16.7394C1.37186 16.7794 1.43545 16.8001 1.49996 16.8001C1.52756 16.8001 1.55516 16.7962 1.58216 16.7884C1.60287 16.7827 3.67735 16.2001 6.29992 16.2001C7.39671 16.2001 8.3339 16.5415 8.69991 16.6947V17.4H1.49996C1.00377 17.4 0.599972 16.9962 0.599972 16.5V4.80013C0.599972 4.63454 0.465571 4.50014 0.299986 4.50014C0.134401 4.50014 0 4.63454 0 4.80013V16.5C0 17.3271 0.672885 18 1.5 18H16.4999C17.327 18 17.9999 17.3272 17.9999 16.5V4.80013C17.9999 4.63451 17.8658 4.50011 17.6999 4.50011Z" fill="#616D75"/>
<path d="M10.2318 6.73618C10.2849 6.84 10.3905 6.89997 10.4997 6.89997C10.5453 6.89997 10.5921 6.88946 10.6356 6.86728C10.6533 6.85828 12.4191 5.96127 13.29 5.68618C13.4478 5.63608 13.5354 5.46747 13.4853 5.30969C13.4355 5.15187 13.2681 5.06398 13.1088 5.1138C12.1914 5.40391 10.4376 6.2949 10.3632 6.3327C10.2156 6.40768 10.1568 6.58832 10.2318 6.73618Z" fill="#616D75"/>
<path d="M10.2318 10.3363C10.2849 10.4401 10.3905 10.5001 10.4997 10.5001C10.5453 10.5001 10.5921 10.4896 10.6356 10.4674C10.6533 10.4584 12.4191 9.56137 13.29 9.28627C13.4478 9.23618 13.5354 9.06757 13.4853 8.90979C13.4355 8.75197 13.2681 8.66408 13.1088 8.7139C12.1914 9.00401 10.4376 9.895 10.3632 9.9328C10.2156 10.0078 10.1568 10.1884 10.2318 10.3363Z" fill="#616D75"/>
<path d="M7.26845 5.5676C5.41598 5.13289 3.31088 5.68671 3.22239 5.71041C3.0625 5.7533 2.9674 5.91769 3.01029 6.0779C3.04629 6.21199 3.16747 6.30019 3.2998 6.30019C3.32561 6.30019 3.35169 6.29689 3.37781 6.29C3.39792 6.2843 5.4247 5.75119 7.1317 6.15169C7.29218 6.1892 7.4545 6.08929 7.49229 5.92789C7.53005 5.7668 7.42985 5.6054 7.26845 5.5676Z" fill="#616D75"/>
<path d="M7.26845 7.36751C5.41598 6.93313 3.31088 7.48662 3.22239 7.51031C3.0625 7.5532 2.9674 7.71763 3.01029 7.8778C3.04629 8.01188 3.16747 8.10009 3.2998 8.10009C3.32561 8.10009 3.35169 8.09678 3.37781 8.08989C3.39792 8.0842 5.4247 7.55109 7.1317 7.95159C7.29218 7.9891 7.4545 7.88919 7.49229 7.72779C7.53005 7.5667 7.42985 7.4053 7.26845 7.36751Z" fill="#616D75"/>
<path d="M10.2318 12.1363C10.2849 12.2401 10.3905 12.3001 10.4997 12.3001C10.5453 12.3001 10.5921 12.2896 10.6356 12.2674C10.6533 12.2584 12.4191 11.3614 13.29 11.0863C13.4478 11.0362 13.5354 10.8676 13.4853 10.7098C13.4355 10.5521 13.2681 10.4641 13.1088 10.5139C12.1914 10.8041 10.4376 11.695 10.3632 11.7328C10.2156 11.8078 10.1568 11.9885 10.2318 12.1363Z" fill="#616D75"/>
<path d="M7.26845 9.16737C5.41598 8.73298 3.31088 9.28616 3.22239 9.31017C3.0625 9.35306 2.9674 9.51749 3.01029 9.67766C3.04629 9.81174 3.16747 9.90026 3.2998 9.90026C3.32561 9.90026 3.35169 9.89668 3.37781 9.88975C3.39792 9.88406 5.4247 9.35095 7.1317 9.75145C7.29218 9.78896 7.4545 9.68905 7.49229 9.52765C7.53005 9.36656 7.42985 9.20516 7.26845 9.16737Z" fill="#616D75"/>
<path d="M7.26845 12.7676C5.41598 12.3328 3.31088 12.8867 3.22239 12.9104C3.0625 12.9533 2.9674 13.1177 3.01029 13.2778C3.04629 13.4119 3.16747 13.5005 3.2998 13.5005C3.32561 13.5005 3.35169 13.4969 3.37781 13.4899C3.39792 13.4843 5.4247 12.9511 7.1317 13.3516C7.29218 13.3888 7.4545 13.2892 7.49229 13.1278C7.53005 12.9668 7.42985 12.8053 7.26845 12.7676Z" fill="#616D75"/>
<path d="M7.26845 10.9676C5.41598 10.5329 3.31088 11.0863 3.22239 11.1104C3.0625 11.1532 2.9674 11.3177 3.01029 11.4778C3.04629 11.6119 3.16747 11.7004 3.2998 11.7004C3.32561 11.7004 3.35169 11.6968 3.37781 11.6899C3.39792 11.6842 5.4247 11.1511 7.1317 11.5516C7.29218 11.5891 7.4545 11.4892 7.49229 11.3278C7.53005 11.1667 7.42985 11.0053 7.26845 10.9676Z" fill="#616D75"/>
</g>
<defs>
<clipPath id="clip0">
<rect width="18" height="18" fill="white"/>
</clipPath>
</defs>
</svg>
