<svg width="18" height="18" viewBox="0 0 18 18" fill="none" xmlns="http://www.w3.org/2000/svg">
<path d="M17.3843 4.87114L12.7986 0.106102C12.7333 0.0383203 12.6432 0 12.5492 0H5.71443C4.94954 0 4.32723 0.622055 4.32723 1.38663V6.23078H1.55738C0.985106 6.23078 0.519531 6.69621 0.519531 7.26834V12.4625C0.519531 13.0346 0.985106 13.5 1.55738 13.5H4.32723V16.6158C4.32723 17.379 4.94954 18 5.71443 18H16.0939C16.8588 18 17.4811 17.3794 17.4811 16.6166V5.11119C17.4811 5.02168 17.4464 4.93566 17.3843 4.87114ZM12.6349 0.934488L16.3994 4.84615H12.6349V0.934488ZM1.55738 12.8077C1.36683 12.8077 1.21186 12.6528 1.21186 12.4625V7.26834C1.21186 7.07797 1.36687 6.92307 1.55738 6.92307H10.9048C11.0953 6.92307 11.2503 7.07797 11.2503 7.26834V12.4625C11.2503 12.6528 11.0953 12.8077 10.9048 12.8077H1.55738ZM16.7888 16.6166C16.7888 16.9977 16.477 17.3077 16.0939 17.3077H5.71443C5.33126 17.3077 5.01953 16.9973 5.01953 16.6158V13.5H10.9048C11.4771 13.5 11.9426 13.0346 11.9426 12.4625V7.26834C11.9426 6.69621 11.4771 6.23078 10.9048 6.23078H5.01953V1.38663C5.01953 1.00375 5.33126 0.692297 5.71443 0.692297H11.9426V5.1923C11.9426 5.38348 12.0976 5.53844 12.2888 5.53844H16.7888V16.6166Z" fill="#616D75"/>
<path d="M4.65708 8.78538C4.54216 8.63596 4.39949 8.53893 4.22913 8.49432C4.11825 8.46458 3.88027 8.44971 3.51518 8.44971H2.55176V11.4231H3.15212V10.3015H3.54358C3.81537 10.3015 4.02294 10.2873 4.16627 10.2589C4.27174 10.2359 4.37552 10.1889 4.47761 10.1179C4.5797 10.0469 4.66387 9.94923 4.73014 9.82484C4.79641 9.70046 4.82952 9.54697 4.82952 9.36444C4.82949 9.1278 4.77201 8.93479 4.65708 8.78538ZM4.14292 9.60378C4.09764 9.67005 4.0351 9.71871 3.9553 9.74982C3.87549 9.78093 3.71732 9.79647 3.48069 9.79647H3.15212V8.95272H3.44216C3.65851 8.95272 3.80251 8.95947 3.87416 8.97301C3.9715 8.99059 4.05198 9.03453 4.1155 9.10484C4.17906 9.17516 4.21085 9.26442 4.21085 9.37256C4.21088 9.46045 4.18821 9.53751 4.14292 9.60378Z" fill="#616D75"/>
<path d="M7.71568 9.26203C7.65079 9.07204 7.55611 8.91148 7.43173 8.78032C7.30734 8.64915 7.1579 8.55788 6.98348 8.50648C6.85369 8.46862 6.66504 8.44971 6.41761 8.44971H5.32031V11.4231H6.45006C6.67182 11.4231 6.84894 11.4022 6.98145 11.3602C7.1586 11.3034 7.29922 11.2243 7.40332 11.1229C7.54124 10.989 7.64738 10.814 7.72177 10.5976C7.78262 10.4205 7.81303 10.2095 7.81303 9.9648C7.81303 9.68626 7.78058 9.45201 7.71568 9.26203ZM7.13153 10.483C7.09096 10.6162 7.03857 10.7119 6.97434 10.77C6.91011 10.8282 6.82932 10.8694 6.73198 10.8937C6.65762 10.9127 6.53658 10.9221 6.36892 10.9221H5.92068V8.95272H6.19043C6.43515 8.95272 6.59947 8.96218 6.68329 8.98113C6.7955 9.00546 6.88814 9.05211 6.96116 9.12109C7.03418 9.19006 7.09096 9.28604 7.13153 9.40909C7.1721 9.53213 7.19238 9.70858 7.19238 9.93847C7.19238 10.1683 7.1721 10.3498 7.13153 10.483Z" fill="#616D75"/>
<path d="M10.3646 8.95272V8.44971H8.32617V11.4231H8.92653V10.1595H10.1678V9.65652H8.92653V8.95272H10.3646Z" fill="#616D75"/>
</svg>
